# xmcd
#
# Track frame offsets:
#       150
#       48990
#       66481
#       76744
#       104508
#       141961
#       184641
#
# Disc length: 2950 seconds
#
# Revision: 1
# Processed by: cddbd v1.5.1PL0 Copyright (c) Steve Scherf et al.
# Submitted via: MusiCat 1.1
#
DISCID=5d0b8407
DTITLE=John Mayall and the Blues Breakers and Friends - St Albans -5 Nov 2004 (d
DTITLE=isc 3)
DYEAR=2004
DGENRE=
TTITLE0=No Days Off
TTITLE1=Can't You Hear Me Knocking
TTITLE2=No days Off (reprise)
TTITLE3=Walking On Sunset
TTITLE4=Oh pretty woman
TTITLE5=Room To Move
TTITLE6=Talk To Your Daughter
EXTD=Trial\n\n
EXTT0=
EXTT1=
EXTT2=
EXTT3=
EXTT4=
EXTT5=
EXTT6=
PLAYORDER=
